# xmcd
#
# Track frame offsets:
# 150
# 10956
# 35892
# 78187
# 95307
# 110588
# 143901
# 167218
# 194548
# 212852
# 247288
#
# Disc length: 3756 seconds
#
# Revision: 1
# Processed by: cddbd v1.4PL0 Copyright (c) Steve Scherf et al.
# Submitted via: plextools 1.18
#
DISCID=a00eaa0b
DTITLE=Otis Rush - Live and Awesome
DYEAR=1996
DGENRE=Blues
TTITLE0=Otis Rush - Intro/The Preacher
TTITLE1=Otis Rush - I Got A Woman
TTITLE2=Otis Rush - Gambler's Blues
TTITLE3=Otis Rush - Feel So Bad
TTITLE4=Otis Rush - Let's Have A National Ball
TTITLE5=Otis Rush - Right Place, Wrong Time
TTITLE6=Otis Rush - Please Love Me
TTITLE7=Otis Rush - All Your Love
TTITLE8=Otis Rush - Lonely Man
TTITLE9=Otis Rush - Stormy Monday
TTITLE10=Otis Rush - Cold Day In Hell
EXTD=GENES GCD 4131
EXTT0=
EXTT1=
EXTT2=
EXTT3=
EXTT4=
EXTT5=
EXTT6=
EXTT7=
EXTT8=
EXTT9=
EXTT10=
PLAYORDER=
